<svg width="40" height="40" viewBox="0 0 40 40" fill="none" xmlns="http://www.w3.org/2000/svg"><path d="M32 26.5c0 3-2.5 5.5-5.5 5.5h-13c-3 0-5.5-2.5-5.5-5.5v-13c0-3 2.5-5.5 5.5-5.5h13c3 0 5.5 2.5 5.5 5.5v13z" fill="#1B1B1B"/><path d="M26.6 14.2c-1.1-.7-1.9-1.8-2.1-3.1-.1-.3-.1-.6-.1-.9H21V24c-.1 1.5-1.3 2.8-2.9 2.8-.5 0-.9-.1-1.3-.3-1-.5-1.6-1.5-1.6-2.6 0-1.6 1.3-2.9 2.9-2.9.3 0 .6 0 .9.1v-3.5c-.3 0-.6-.1-.9-.1-3.5 0-6.3 2.8-6.3 6.3 0 2.1 1.1 4 2.7 5.2 1 .7 2.3 1.1 3.6 1.1 3.5 0 6.3-2.8 6.3-6.3v-7c1.3 1 3 1.5 4.8 1.5V15c-1 0-1.9-.3-2.6-.8z" fill="#fff"/></svg>