<?xml version="1.0" encoding="UTF-8"?>
<svg id="_レイヤー_2" data-name="レイヤー 2" xmlns="http://www.w3.org/2000/svg" viewBox="0 0 240.94 317.76">
  <defs>
    <style>
      .cls-1 {
        fill: #e60012;
      }
    </style>
  </defs>
  <g id="_レイヤー_1-2" data-name="レイヤー 1">
    <g>
      <g>
        <path class="cls-1" d="M10.39,309.61c0,2.84-2.31,5.2-5.2,5.2s-5.2-2.35-5.2-5.2v-10.55h3.11v10.55c0,1.14.94,2.08,2.08,2.08s2.08-.94,2.08-2.08v-10.55h3.11v10.55Z"/>
        <path class="cls-1" d="M12.66,314.65v-15.59h3.11l4.17,9.27v-9.27h3.11v15.59h-3.11l-4.17-9.27v9.27h-3.11Z"/>
        <path class="cls-1" d="M25.33,299.06h3.11v15.59h-3.11v-15.59Z"/>
        <path class="cls-1" d="M37.65,317.76l-1.03-3.05c-.43.07-.69.09-1.03.09-2.84,0-5.2-2.35-5.2-5.2v-5.51c0-2.89,2.35-5.2,5.2-5.2s5.2,2.31,5.2,5.2v5.51c0,1.46-.52,2.69-1.55,3.7l1.52,4.46h-3.11ZM35.59,311.69c1.14,0,2.08-.92,2.08-2.08v-5.51c0-1.25-.9-2.08-2.08-2.08s-2.08.92-2.08,2.08v5.51c0,1.14.94,2.08,2.08,2.08Z"/>
        <path class="cls-1" d="M53.13,311.53v3.11h-10.39v-15.59h3.11v12.48h7.28Z"/>
        <path class="cls-1" d="M59.65,314.8c-2.84,0-5.2-2.35-5.2-5.2v-5.51c0-2.89,2.35-5.2,5.2-5.2s5.2,2.31,5.2,5.2v5.51c0,2.84-2.31,5.2-5.2,5.2ZM59.65,311.69c1.14,0,2.08-.94,2.08-2.08v-5.51c0-1.16-.94-2.08-2.08-2.08s-2.08.92-2.08,2.08v5.51c0,1.14.94,2.08,2.08,2.08Z"/>
        <path class="cls-1" d="M79.14,302.01c-1.16,0-2.08.92-2.08,2.08v5.51c0,1.14.94,2.08,2.08,2.08,1.23,0,2.08-.92,2.08-2.17h-2.08v-3.02h5.2v3.11c0,2.93-2.31,5.2-5.2,5.2s-5.2-2.35-5.2-5.2v-5.51c0-2.89,2.35-5.2,5.2-5.2s5.2,2.31,5.2,5.2h-3.11c0-1.19-.92-2.08-2.08-2.08Z"/>
        <path class="cls-1" d="M93.56,314.65l-1.75-5.2h-2.42v5.2h-3.11v-15.59h5.2c2.89,0,5.2,2.31,5.2,5.2,0,1.66-.69,3.05-2.06,4.14l2.06,6.25h-3.11ZM91.48,306.34c1.16,0,2.08-.94,2.08-2.08s-.92-2.08-2.08-2.08h-2.08v4.17h2.08Z"/>
        <path class="cls-1" d="M100.8,314.65h-3.11l5.2-15.59h3.11l5.2,15.59h-3.11l-1.03-3.11h-5.2l-1.05,3.11ZM102.88,308.42h3.11l-1.55-5.11-1.57,5.11Z"/>
        <path class="cls-1" d="M122.98,304.25c0,2.84-2.31,5.2-5.2,5.2h-2.08v5.2h-3.11v-15.59h5.2c2.89,0,5.2,2.31,5.2,5.2ZM117.78,306.34c1.16,0,2.08-.94,2.08-2.08s-.92-2.08-2.08-2.08h-2.08v4.17h2.08Z"/>
        <path class="cls-1" d="M132.14,314.65v-6.23h-4.17v6.23h-3.11v-15.59h3.11v6.23h4.17v-6.23h3.11v15.59h-3.11Z"/>
        <path class="cls-1" d="M137.53,299.06h3.11v15.59h-3.11v-15.59Z"/>
        <path class="cls-1" d="M147.82,302.01c-1.19,0-2.08,1.03-2.08,2.08v5.51c0,1.14.94,2.08,2.08,2.08s2.02-.83,2.08-2.08h3.11c0,2.84-2.31,5.2-5.2,5.2s-5.2-2.35-5.2-5.2v-5.51c0-2.89,2.35-5.2,5.2-5.2s5.2,2.31,5.2,5.2h-3.11c0-1.19-.94-2.08-2.08-2.08Z"/>
        <path class="cls-1" d="M165.62,314.65v-12.48h-3.63v-3.11h10.39v3.11h-3.63v12.48h-3.14Z"/>
        <path class="cls-1" d="M179.4,308.42h-7.8v-3.14h7.8v3.14Z"/>
        <path class="cls-1" d="M185.8,311.69c.87,0,1.59-.67,1.59-1.48,0-.65-.29-1.03-.81-1.28l-2.73-1.3c-1.79-.87-2.71-2.31-2.71-4.08,0-2.58,2.11-4.66,4.7-4.66,2.06,0,3.79,1.19,4.66,3.16l-2.89,1.21c-.36-.81-.99-1.25-1.77-1.25-.87,0-1.59.67-1.59,1.48,0,.56.29,1.03.81,1.28l2.73,1.3c1.81.87,2.71,2.22,2.71,4.08,0,2.62-2.11,4.66-4.73,4.66-2.06,0-3.74-1.16-4.64-3.16l2.87-1.21c.38.81,1.01,1.25,1.79,1.25Z"/>
        <path class="cls-1" d="M199.35,314.65v-6.23h-4.17v6.23h-3.11v-15.59h3.11v6.23h4.17v-6.23h3.11v15.59h-3.11Z"/>
        <path class="cls-1" d="M204.51,299.06h3.11v15.59h-3.11v-15.59Z"/>
        <path class="cls-1" d="M216.91,314.65l-1.75-5.2h-2.42v5.2h-3.11v-15.59h5.2c2.89,0,5.2,2.31,5.2,5.2,0,1.66-.69,3.05-2.06,4.14l2.06,6.25h-3.11ZM214.83,306.34c1.16,0,2.08-.94,2.08-2.08s-.92-2.08-2.08-2.08h-2.08v4.17h2.08Z"/>
        <path class="cls-1" d="M224.44,314.65v-12.48h-3.63v-3.11h10.39v3.11h-3.63v12.48h-3.14Z"/>
        <path class="cls-1" d="M236.24,311.69c.87,0,1.59-.67,1.59-1.48,0-.65-.29-1.03-.81-1.28l-2.73-1.3c-1.79-.87-2.71-2.31-2.71-4.08,0-2.58,2.11-4.66,4.7-4.66,2.06,0,3.79,1.19,4.66,3.16l-2.89,1.21c-.36-.81-.99-1.25-1.77-1.25-.87,0-1.59.67-1.59,1.48,0,.56.29,1.03.81,1.28l2.73,1.3c1.81.87,2.71,2.22,2.71,4.08,0,2.62-2.11,4.66-4.73,4.66-2.06,0-3.74-1.16-4.64-3.16l2.87-1.21c.38.81,1.01,1.25,1.79,1.25Z"/>
      </g>
      <g>
        <path class="cls-1" d="M84.4,0v122.25c0,13.27-10.93,24.19-24.18,24.19s-24.14-10.92-24.14-24.19V0H0v122.25C0,155.53,26.99,182.55,60.22,182.55s60.26-27.02,60.26-60.3V36.08h42.08v144.61h36.35V36.08h42.04V0H84.4Z"/>
        <g>
          <path class="cls-1" d="M0,223.31c0-14,11.45-25.45,25.45-25.45s25.45,11.45,25.45,25.45c0,4.75-1.58,9.5-6.33,15.22l-23.5,28.01h29.83v16.92H0v-15.95l30.68-37.26c1.83-2.31,3.29-4.38,3.29-6.94,0-4.75-3.77-8.52-8.52-8.52s-8.52,3.77-8.52,8.52v.85H0v-.85Z"/>
          <path class="cls-1" d="M88.64,284.32c-13.88,0-25.33-11.45-25.33-25.45v-35.56c0-14,11.45-25.45,25.33-25.45s25.57,11.45,25.57,25.45v35.56c0,14-11.45,25.45-25.57,25.45ZM88.64,267.39c4.75,0,8.52-3.77,8.52-8.52v-35.56c0-4.75-3.9-8.52-8.4-8.52-4.75,0-8.52,3.77-8.52,8.52v35.56c0,4.75,3.9,8.52,8.4,8.52Z"/>
          <path class="cls-1" d="M126.52,223.31c0-14,11.45-25.45,25.45-25.45s25.45,11.45,25.45,25.45c0,4.75-1.58,9.5-6.33,15.22l-23.5,28.01h29.83v16.92h-50.9v-15.95l30.68-37.26c1.83-2.31,3.29-4.38,3.29-6.94,0-4.75-3.77-8.52-8.52-8.52s-8.52,3.77-8.52,8.52v.85h-16.93v-.85Z"/>
          <path class="cls-1" d="M238.02,198.72v16.93h-31.54v10.11c2.56-1.1,5.48-1.58,8.77-1.58,14.25,0,25.69,11.45,25.69,25.45v9.25c0,14-11.45,25.45-25.57,25.45s-24.72-10.59-25.33-25.45h16.93c.37,4.99,3.65,8.52,8.4,8.52s8.52-3.65,8.52-8.52v-9.25c0-5.24-3.65-8.52-8.65-8.52-4.02,0-7.79,2.68-8.4,6.58h-16.8v-48.95h47.97Z"/>
        </g>
      </g>
    </g>
  </g>
</svg>